<svg id="Layer_1" enable-background="new 0 0 509.881 509.881" height="512" viewBox="0 0 509.881 509.881" width="512" xmlns="http://www.w3.org/2000/svg"><g><path d="m211.077 216.448h45v30h-45z" transform="matrix(.707 -.707 .707 .707 -95.245 232.958)"/><path d="m399.045 365.096-25.049-25.049c-21.277-21.277-55.899-21.279-77.181 0l-126.501 126.501c-17.587 17.588-46.051 17.588-63.639 0l-23.228-23.228c-10.696-10.696-11.066-27.493-1.73-38.634 16.684 7.891 37.274 4.986 51.097-8.837l12.348-12.348c16.878 8.353 37.425 5.904 51.846-6.819l153.732-135.646c29.024-1.268 56.9-13.945 79.059-36.105 46.788-46.788 46.788-122.917 0-169.706-46.787-46.788-122.918-46.788-169.705 0-22.162 22.163-34.847 50.04-36.112 79.066l-135.655 153.743c-12.884 14.602-15.044 35.215-6.812 51.836l-12.341 12.341c-13.843 13.845-16.754 34.535-8.751 51.27-21.063 22.991-20.525 58.717 1.812 81.054l23.227 23.228c29.31 29.311 76.753 29.316 106.066 0l126.5-126.503c9.581-9.582 25.172-9.582 34.755 0l25.049 25.049zm-287.443 9.541c-5.849 5.848-15.365 5.848-21.214 0-5.849-5.849-5.849-15.365 0-21.214l10.607-10.606 21.213 21.214zm285.589-181.1c-13.977 10.363-29.868 16.41-46.189 17.451l-96.964-96.965c1.041-16.319 7.088-32.211 17.451-46.189zm11.395-137.098c31.477 31.476 34.697 80.648 9.706 115.772l-125.478-125.478c35.124-24.991 84.294-21.77 115.772 9.706zm-297.764 231.443 128.742-145.907 83.486 83.485-145.891 128.728c-6.662 5.88-16.804 5.563-23.088-.721l-42.529-42.529c-6.274-6.274-6.591-16.401-.72-23.056z"/><path d="m90 148.838v-70.542l38.183 10.048 7.635-29.012-75.818-19.952v67.038c-29.237-10.37-60 11.457-60 42.42 0 24.813 20.187 45 45 45s45-20.187 45-45zm-45 15c-8.271 0-15-6.729-15-15s6.729-15 15-15 15 6.729 15 15-6.729 15-15 15z"/><path d="m435 339.291v82.127c-29.237-10.369-60 11.456-60 42.42 0 24.814 20.186 45 45 45 24.813 0 45-20.186 45-45v-85.453l37.119 9.942 7.762-28.979zm-15 139.547c-8.272 0-15-6.728-15-15 0-8.271 6.728-15 15-15 8.271 0 15 6.729 15 15s-6.729 15-15 15z"/></g></svg>